<?xml version="1.0" encoding="UTF-8"?>
<svg id="Layer_1" xmlns="http://www.w3.org/2000/svg" version="1.1" viewBox="0 0 575 575">
  <!-- Generator: Adobe Illustrator 30.3.0, SVG Export Plug-In . SVG Version: 2.1.3 Build 182)  -->
  <defs>
    <style>
      .st0 {
        fill: #be3d4e;
      }

      .st1 {
        fill: #390e18;
      }
    </style>
  </defs>
  <path class="st1" d="M111.4,173.5c-12.9-3-22.8-8-30.4-14.3-7.4-7.1-13.7-16.7-17.5-29.5-1.8-6.9-2.6-13.3-2.7-19.4,0-4.9.5-9.8,1.4-14.7,1.8-10.2,6.5-20.4,14-28.9,7.6-8.5,17.2-14.4,27.1-17.3,4.8-1.4,9.6-2.4,14.4-3.1,6.1-.6,12.6-.6,19.6.4,13.2,2.2,23.4,7.3,31.3,13.8,7.2,6.8,13.4,16,17.8,28.4,3.5,9.5,4.2,19.4,4.6,28.7-.3,6.6.3,13,1.9,19,.6,2.7,1.4,5.3,2.6,7.6,6.8,16.1,20.7,28,39.1,30,16.6,1.9,27,9,32.8,18,.6,1.3,1.2,2.6,1.7,4,4.7,14.8,1.4,27.9-5.5,36.6-7.8,7.9-20.4,12.7-35.7,9.9-1.5-.3-2.9-.7-4.2-1.2-9.6-4.7-18-14.1-21.8-30.4-4.2-18-17.6-30.4-34.5-35.2-2.5-.9-5.1-1.4-7.8-1.7-6.1-.9-12.6-.7-19.1.4-9.3.6-19.2,1.2-29-1.2Z"/>
  <g>
    <g id="_x3C_Radial_Repeat_x3E_15">
      <circle class="st0" cx="482.9" cy="427.3" r="29.7"/>
    </g>
    <g id="_x3C_Radial_Repeat_x3E_16">
      <circle class="st0" cx="418.2" cy="474.7" r="29.4" transform="translate(-27.1 25.3) rotate(-3.4)"/>
    </g>
    <g id="_x3C_Radial_Repeat_x3E_17">
      <circle class="st0" cx="343.7" cy="494.8" r="28.7" transform="translate(-29 21.5) rotate(-3.4)"/>
    </g>
    <g id="_x3C_Radial_Repeat_x3E_18">
      <circle class="st0" cx="266.7" cy="483.8" r="27.8" transform="translate(-29.2 17.3) rotate(-3.5)"/>
    </g>
    <g id="_x3C_Radial_Repeat_x3E_19">
      <circle class="st0" cx="200.2" cy="445.3" r="26.8"/>
    </g>
    <g id="_x3C_Radial_Repeat_x3E_20">
      <circle class="st0" cx="151" cy="382.6" r="24.9" transform="translate(-22.1 9.5) rotate(-3.4)"/>
    </g>
    <g id="_x3C_Radial_Repeat_x3E_21">
      <circle class="st0" cx="132.4" cy="307.2" r="22.9" transform="translate(-18.2 8.5) rotate(-3.4)"/>
    </g>
    <g id="_x3C_Radial_Repeat_x3E_22">
      <circle class="st0" cx="143.5" cy="229.4" r="21" transform="translate(-13.8 9.3) rotate(-3.5)"/>
    </g>
    <g id="_x3C_Radial_Repeat_x3E_24">
      <circle class="st0" cx="244" cy="114.9" r="21" transform="translate(-6.3 14.5) rotate(-3.4)"/>
    </g>
    <g id="_x3C_Radial_Repeat_x3E_25">
      <circle class="st0" cx="320.3" cy="94.7" r="22.9" transform="translate(-5.1 19.4) rotate(-3.4)"/>
    </g>
    <g id="_x3C_Radial_Repeat_x3E_26">
      <circle class="st0" cx="398.2" cy="105.3" r="24.9" transform="translate(-5.7 24.7) rotate(-3.5)"/>
    </g>
    <g id="_x3C_Radial_Repeat_x3E_27">
      <path class="st0" d="M483.3,126.2c11.3,10,11.9,27,2.3,37.8-9.6,10.8-27,11.9-37.8,2.3-10.8-9.6-11.9-27-2.3-37.8,9.6-10.8,27-11.9,37.8-2.3Z"/>
    </g>
    <g id="_x3C_Radial_Repeat_x3E_28">
      <circle class="st0" cx="511.2" cy="207" r="27.8" transform="translate(-11.2 30.3) rotate(-3.4)"/>
    </g>
    <g id="_x3C_Radial_Repeat_x3E_29">
      <circle class="st0" cx="532" cy="282.7" r="28.7" transform="translate(-16 32.4) rotate(-3.4)"/>
    </g>
    <g id="_x3C_Radial_Repeat_x3E_30">
      <circle class="st0" cx="521.7" cy="359.2" r="29.4" transform="translate(-21.1 32.8) rotate(-3.5)"/>
    </g>
  </g>
</svg>
