<svg width="256" height="256" viewBox="0 0 256 256" fill="none" xmlns="http://www.w3.org/2000/svg">
  <path d="M126.2 2.67C58.83 2.67 3.2 56.91 3.2 122.67C14.03 117.47 28.87 116.9 49.8 116.83C68.55 116.76 81.34 119.18 89.85 123.45C99.74 128.45 99.78 136.61 94.78 143.17C87.97 152.29 86.9 162.79 87.58 170.92C89.55 188.66 104.47 206.93 127.27 206.93C149.94 206.93 166.54 188.06 169.03 172.34C170.37 161.95 166.77 151.94 161.24 143.97C157.29 138.39 156.98 128.73 167.12 123.72C176.02 119.27 186.75 117.11 204.97 117.11C224.52 117.11 240 119.11 254.34 122.92C254.34 57.78 197.83 2.72 126.24 2.72L126.2 2.67Z" fill="#640E30"/>
  <path d="M254 134.1C239.76 129.61 226.14 126.23 206.29 126.23C190.82 126.23 179.95 128.15 171.24 132.09C166.51 134.33 167.24 136.49 169.64 140.25C176.22 149.84 178.74 160.43 177.92 172.05C176.18 192.11 157.1 216.44 126.29 216.44C99.1 216.44 80.35 194.03 76.95 175.58C75.04 163.37 78.14 148.67 87.17 137.68C88.94 135.59 89.25 134.14 87.59 133.21C78.21 128.08 67.81 125.84 50.04 125.84C31.15 125.84 17.32 127.1 3.08 133.17C3.03 133.87 3.03 134.6 3.03 135.33C3.03 198.64 56.8 252.63 124.63 252.63C193.79 252.63 253.63 200.39 254.03 134.13L254 134.1Z" fill="#AE4242"/>
  <path d="M94.8179 212.628C96.3601 172.695 116.105 156.8 124.183 123.723C127.441 110.864 126.859 102.73 116.946 86.109C110.047 74.7339 107.5 69.1869 107.465 52.3012C107.516 44.7057 109.549 40.2987 115.946 40.188C122.663 40.0702 125.724 45.1228 124.632 52.6664C122.842 66.2261 125.838 82.0791 137.129 89.636C143.582 93.4987 151.967 93.6875 160.699 89.1324C168.704 84.8503 175.123 77.1777 180.892 68.2892C185.415 61.8099 192.023 67.003 192.764 72.4426C193.89 80.7271 182.605 93.704 159.605 105.373C147.517 111.165 140.006 117.681 130.85 135.389C128.683 139.581 126.978 152.773 124.445 157.671C117.106 181.233 111.971 198.53 98.6168 220.317C98.0818 222.644 94.278 214.245 94.8179 212.628Z" fill="#C86357"/>
</svg>
